<?xml version="1.0" encoding="UTF-8" standalone="no"?>
<svg width="100px" height="100px" viewBox="0 0 100 100" version="1.1" xmlns="http://www.w3.org/2000/svg" xmlns:xlink="http://www.w3.org/1999/xlink">
    <!-- Generator: Sketch 39.1 (31720) - http://www.bohemiancoding.com/sketch -->
    <title>layer_mask_scallop</title>
    <desc>Created with Sketch.</desc>
    <defs></defs>
    <g id="Page-1" stroke="none" stroke-width="1" fill="none" fill-rule="evenodd">
        <path d="M14.6446609,14.6446609 C12.0669836,17.2223383 10.9071482,20.6809496 11.1651546,24.0513859 C7.95254269,25.1028292 5.20105229,27.4979307 3.80602337,30.8658284 C2.41099446,34.2337261 2.66299949,37.8729161 4.19117651,40.8880585 C1.62548002,43.0888788 0,46.3546138 0,50 C0,53.6453862 1.62548002,56.9111212 4.19117651,59.1119415 C2.66299949,62.1270839 2.41099446,65.7662739 3.80602337,69.1341716 C5.20105229,72.5020693 7.95254269,74.8971708 11.1651546,75.9486141 C10.9071482,79.3190504 12.0669836,82.7776617 14.6446609,85.3553391 C17.2223383,87.9330164 20.6809496,89.0928518 24.0513859,88.8348454 C25.1028292,92.0474573 27.4979307,94.7989477 30.8658284,96.1939766 C34.2337261,97.5890055 37.8729161,97.3370005 40.8880585,95.8088235 C43.0888788,98.37452 46.3546138,100 50,100 C53.6453862,100 56.9111212,98.37452 59.1119415,95.8088235 C62.1270839,97.3370005 65.7662739,97.5890055 69.1341716,96.1939766 C72.5020693,94.7989477 74.8971708,92.0474573 75.9486141,88.8348454 C79.3190504,89.0928518 82.7776617,87.9330164 85.3553391,85.3553391 C87.9330164,82.7776617 89.0928518,79.3190504 88.8348454,75.9486141 C92.0474573,74.8971708 94.7989477,72.5020693 96.1939766,69.1341716 C97.5890055,65.7662739 97.3370005,62.1270839 95.8088235,59.1119415 C98.37452,56.9111212 100,53.6453862 100,50 C100,46.3546138 98.37452,43.0888788 95.8088235,40.8880585 C97.3370005,37.8729161 97.5890055,34.2337261 96.1939766,30.8658284 C94.7989477,27.4979307 92.0474573,25.1028292 88.8348454,24.0513859 C89.0928518,20.6809496 87.9330164,17.2223383 85.3553391,14.6446609 C82.7776617,12.0669836 79.3190504,10.9071482 75.9486141,11.1651546 C74.8971708,7.95254269 72.5020693,5.20105229 69.1341716,3.80602337 C65.7662739,2.41099446 62.1270839,2.66299949 59.1119415,4.19117651 C56.9111212,1.62548002 53.6453862,0 50,0 C46.3546138,0 43.0888788,1.62548002 40.8880585,4.19117651 C37.8729161,2.66299949 34.2337261,2.41099446 30.8658284,3.80602337 C27.4979307,5.20105229 25.1028292,7.95254269 24.0513859,11.1651546 C20.6809496,10.9071482 17.2223383,12.0669836 14.6446609,14.6446609 Z" id="layer_mask_scallop" fill="#FFFFFF"></path>
    </g>
</svg>