<?xml version="1.0" encoding="UTF-8" standalone="no"?>
<svg width="100px" height="100px" viewBox="0 0 100 100" version="1.1" xmlns="http://www.w3.org/2000/svg" xmlns:xlink="http://www.w3.org/1999/xlink">
    <!-- Generator: Sketch 39.1 (31720) - http://www.bohemiancoding.com/sketch -->
    <title>layer_mask_burst</title>
    <desc>Created with Sketch.</desc>
    <defs></defs>
    <g id="Page-1" stroke="none" stroke-width="1" fill="none" fill-rule="evenodd">
        <polygon id="layer_mask_burst" fill="#FFFFFF" points="16.3695619 56.309314 0 49.0553932 16.775429 42.8631245 4.22098311 29.8640238 21.5850231 29.5480607 15.4114077 13.8779129 31.5746027 20.2309315 31.8676317 3.39106233 44.3692818 15.4458731 51.0843442 0 57.4608222 14.6352251 68.2614669 3.44453922 69.10535 20.7571983 84.687399 13.976724 78.8417774 30.2944755 95.8324887 29.993126 84.1873055 42.8317401 99.9999974 49.0553932 85.1536384 56.0702551 96.6089359 68.1323681 79.957853 68.5485759 86.1220849 84.5885919 70.5792145 78.6010242 70.1359738 95.779016 58.0675769 84.2992258 51.084343 100 43.5185169 82.9523402 29.9931247 95.8324901 30.6810475 78.2416686 13.9767227 84.6874003 21.3439965 68.6988571 3.44453791 68.2614682 16.3695619 56.309314"></polygon>
    </g>
</svg>