<?xml version="1.0" encoding="UTF-8" standalone="no"?>
<svg width="110px" height="110px" viewBox="0 0 110 110" version="1.1" xmlns="http://www.w3.org/2000/svg" xmlns:xlink="http://www.w3.org/1999/xlink">
    <!-- Generator: Sketch 39.1 (31720) - http://www.bohemiancoding.com/sketch -->
    <title>layer_mask_prohibit</title>
    <desc>Created with Sketch.</desc>
    <defs></defs>
    <g id="Page-1" stroke="none" stroke-width="1" fill="none">
        <path d="M78.0277079,88.9272028 C71.4636799,93.3911307 63.536507,96 55,96 C32.3563253,96 14,77.6436747 14,55 C14,46.463493 16.6088693,38.5363201 21.0727972,31.9722921 L78.0277079,88.9272028 L78.0277079,88.9272028 Z M88.0996049,79.20011 C93.0670137,72.4174848 96,64.0512602 96,55 C96,32.3563253 77.6436747,14 55,14 C45.9487398,14 37.5825152,16.9329863 30.79989,21.9003951 L88.0996049,79.20011 L88.0996049,79.20011 Z M55,110 C85.3756612,110 110,85.3756612 110,55 C110,24.6243388 85.3756612,0 55,0 C24.6243388,0 0,24.6243388 0,55 C0,85.3756612 24.6243388,110 55,110 L55,110 Z" id="layer_mask_prohibit" fill="#FFFFFF" fill-rule="evenodd"></path>
    </g>
</svg>